<svg xmlns="http://www.w3.org/2000/svg" width="189.417" height="190.201" viewBox="0 0 189.417 190.201">
  <g id="blob-shape" transform="translate(253.449 231.402)">
    <path id="Tracé_387" data-name="Tracé 387" d="M-87.832-209.428c14.5,15.624,20.762,37.514,22.976,58.778,2.172,21.305.251,42.026-8.23,60.992-8.522,18.966-23.561,36.219-42.652,43.739-19.049,7.478-42.151,5.264-65.629-1.044-23.478-6.35-47.289-16.752-60.365-35.384-13.076-18.59-15.415-45.368-5.974-65.044,9.441-19.718,30.621-32.334,49.253-47.206,18.674-14.872,34.757-32.042,54.141-35.927S-102.286-225.052-87.832-209.428Z" transform="translate(0 0)" fill="#ffb975"/>
  </g>
</svg>
