<svg xmlns="http://www.w3.org/2000/svg" viewBox="0 0 270.51 40.34"><defs><style>.cls-1{fill:none;stroke:#ffb975;stroke-miterlimit:10;}</style></defs><title>Fichier 6</title><g id="Calque_2" data-name="Calque 2"><g id="Calque_2-2" data-name="Calque 2"><path class="cls-1" d="M.5,37.84A61.3,61.3,0,0,1,8.91,6.51c1.36-2.3,3-4.65,5.54-5.58,5.46-2,10.66,3.62,13.09,8.92,3.24,7.06,5.08,14.88,9.71,21.12s13.51,10.44,20.26,6.6C65.75,32.89,65.77,19.77,74,15c5.45-3.18,12.59-1.28,17.76,2.33s9.12,8.71,14,12.74A43.5,43.5,0,0,0,145.64,38c12.77-4,24.23-14,37.54-12.76,14.21,1.3,25.51,15.27,39.75,14.42C241.12,38.57,252.3,14,270.48,15.37"/></g></g></svg>