<svg xmlns="http://www.w3.org/2000/svg" viewBox="0 0 270.11 39.59"><defs><style>.cls-1{fill:none;stroke:#ffb975;stroke-miterlimit:10;stroke-width:0.25px;}</style></defs><title>home-path_3</title><g id="Calque_2" data-name="Calque 2"><g id="Calque_2-2" data-name="Calque 2"><path class="cls-1" d="M.13,37.46A61.23,61.23,0,0,1,8.54,6.14c1.35-2.31,3-4.66,5.53-5.59,5.47-2,10.67,3.62,13.1,8.92,3.24,7.07,5.07,14.89,9.71,21.13S50.38,41,57.14,37.2c8.24-4.68,8.25-17.81,16.43-22.58C79,11.44,86.16,13.34,91.34,17s9.12,8.7,14,12.74a43.5,43.5,0,0,0,39.95,7.92c12.77-4,24.24-14,37.55-12.76,14.2,1.3,25.5,15.27,39.74,14.43C240.74,38.19,251.93,13.65,270.1,15"/></g></g></svg>