<svg xmlns="http://www.w3.org/2000/svg" width="333.926" height="291.64" viewBox="0 0 333.926 291.64">
  <g id="Groupe_10" data-name="Groupe 10" transform="translate(0.619 0.137)">
    <path id="Tracé_318" data-name="Tracé 318" d="M347.444,360.037C389.421,477.218,488.982,577.69,600.982,632.821c12.551,6.1,35.514,17.8,45.293,16.48" transform="translate(-313.102 -358.879)" fill="none" stroke="#174d5a" stroke-miterlimit="10" stroke-width="2"/>
    <path id="Tracé_319" data-name="Tracé 319" d="M366.934,539.992c-18.236-28.969,5.732-77.806,15.705-105.912,3.688-9.959,6.283-18.144,4.274-29.776" transform="translate(-92.254 -272.757)" fill="none" stroke="#174d5a" stroke-miterlimit="10" stroke-width="2"/>
    <path id="Tracé_320" data-name="Tracé 320" d="M557.968,460.326c-10.089-23.337-111.276-.05-132.357.418-20.365.3-40.692-2.442-57.337-15.14" transform="translate(-286.15 -192.408)" fill="none" stroke="#174d5a" stroke-miterlimit="10" stroke-width="2"/>
    <path id="Tracé_321" data-name="Tracé 321" d="M554.739,453.869c-23.971-27.608-82.645-19.717-116.519-25.293-12.483-1.576-29.435-2.842-37.343-13.832" transform="translate(-378.954 -252.446)" fill="none" stroke="#174d5a" stroke-miterlimit="10" stroke-width="2"/>
    <path id="Tracé_322" data-name="Tracé 322" d="M405.788,471.968c-18.174-19.146-3.729-47.552,11.87-67.912" transform="translate(-231.402 -273.24)" fill="none" stroke="#174d5a" stroke-miterlimit="10" stroke-width="2"/>
    <path id="Tracé_323" data-name="Tracé 323" d="M393.977,414.026c1.163-7.847,1.44-16.239-.433-24.121" transform="translate(-197.514 -300.771)" fill="none" stroke="#174d5a" stroke-miterlimit="10" stroke-width="2"/>
    <path id="Tracé_324" data-name="Tracé 324" d="M521.867,433.084c-21.785-31.155-66.813-29.538-92.966-53.6" transform="translate(-428.627 -321.037)" fill="none" stroke="#174d5a" stroke-miterlimit="10" stroke-width="2"/>
    <path id="Tracé_325" data-name="Tracé 325" d="M430.638,442.525c-8.074-27.6-4.486-44.348,7.432-70.642" transform="translate(-337.156 -335.833)" fill="none" stroke="#174d5a" stroke-miterlimit="10" stroke-width="2"/>
    <path id="Tracé_326" data-name="Tracé 326" d="M436.759,359.765c10.412,18.339,37.92,25.8,35.4,50.244-.6,5.44-1.744,11.767-6.775,14.477" transform="translate(-402.229 -359.409)" fill="none" stroke="#174d5a" stroke-miterlimit="10" stroke-width="2"/>
    <path id="Tracé_327" data-name="Tracé 327" d="M467.895,423.565c-23.234.978-29.7-34.194-28.616-50.345a85.673,85.673,0,0,0-.2-13.576" transform="translate(-404.634 -359.644)" fill="none" stroke="#174d5a" stroke-miterlimit="10" stroke-width="2"/>
    <path id="Tracé_328" data-name="Tracé 328" d="M436.169,371.79c-3.349,11.39,10.654,51.208-10.242,50.872" transform="translate(-335.697 -336.014)" fill="none" stroke="#174d5a" stroke-miterlimit="10" stroke-width="2"/>
    <path id="Tracé_329" data-name="Tracé 329" d="M444.128,372.091c-14.144,10.554-26.044,35.328-9.334,49.9" transform="translate(-344.205 -335.428)" fill="none" stroke="#174d5a" stroke-miterlimit="10" stroke-width="2"/>
    <path id="Tracé_330" data-name="Tracé 330" d="M439.935,379.639c8.848,6.978,12.48,17.47,22.4,24.194,7.261,5.087,20.495,11.4,29.891,9.546,3.667-.492,6.451-1.532,8.445-4.274" transform="translate(-439.935 -320.743)" fill="none" stroke="#174d5a" stroke-miterlimit="10" stroke-width="2"/>
    <path id="Tracé_331" data-name="Tracé 331" d="M500.667,409.562c-1.561-19.308-34.987-24.61-50.047-27.464-3.923-.583-7.758-.807-11.137-2.274" transform="translate(-438.596 -320.384)" fill="none" stroke="#174d5a" stroke-miterlimit="10" stroke-width="2"/>
    <path id="Tracé_332" data-name="Tracé 332" d="M388.5,488.994c17.181-10.513,38.727-20.174,43.443-41.732,3.9-20.227-5.27-38.106-17.234-53.426-3.873-5.137-8.371-9.744-11.523-15.052" transform="translate(-220.616 -322.405)" fill="none" stroke="#174d5a" stroke-miterlimit="10" stroke-width="2"/>
    <path id="Tracé_333" data-name="Tracé 333" d="M420.791,378.293c4.633,16.309-6.068,30.2-13.458,43.694-8.589,16.418-10.471,32.383-6.571,50.377,1.278,5.376,1.906,12.8,6.507,16.242" transform="translate(-240.081 -323.362)" fill="none" stroke="#174d5a" stroke-miterlimit="10" stroke-width="2"/>
    <path id="Tracé_334" data-name="Tracé 334" d="M522.777,446.486c-18.342-27.812-53.361-19.111-81.756-27.122-6.5-1.861-12.177-5.055-16.044-10.189h0c-.53-.63-1.859-1.449-2.389-2.083h0c4.783,18.542,4.828,37.835,20.565,51.5,14.321,12.489,39.753,14.395,56.471,5.122,7.013-3.938,12.454-11.284,17.965-16.757" transform="translate(-410.941 -267.331)" fill="none" stroke="#174d5a" stroke-miterlimit="10" stroke-width="2"/>
    <path id="Tracé_335" data-name="Tracé 335" d="M373.167,521.514c-9.968-18.065-16.566-34.666-7.311-54.651,8.433-18.654,23.67-30.981,28.283-51.379,1.337-7.128,1.782-14.8,3.473-22.015" transform="translate(-105.614 -293.835)" fill="none" stroke="#174d5a" stroke-miterlimit="10" stroke-width="2"/>
    <path id="Tracé_336" data-name="Tracé 336" d="M378.267,392.288c4.969,17.738,12.725,34.442,16.536,52.08,5.261,23.726-5.649,47.891-22.1,64.669-4.878,4.942-10.477,10.056-17.452,10.96" transform="translate(-85.957 -296.135)" fill="none" stroke="#174d5a" stroke-miterlimit="10" stroke-width="2"/>
    <path id="Tracé_337" data-name="Tracé 337" d="M434.548,461.588c-8.913-8.857-18-18.43-32.277-19.576" transform="translate(-262.869 -199.396)" fill="none" stroke="#174d5a" stroke-miterlimit="10" stroke-width="2"/>
    <path id="Tracé_338" data-name="Tracé 338" d="M476.392,449.653c-20.468,1.458-41.482,3.8-58.548-10.686" transform="translate(-350.583 -205.32)" fill="none" stroke="#174d5a" stroke-miterlimit="10" stroke-width="2"/>
    <path id="Tracé_339" data-name="Tracé 339" d="M404.106,438.967c5.373,6.669,2.878,13.7,4.663,21.219,2.044,8.6,7.755,16.7,14.745,22.23,16.454,13.5,42.242,15.317,61.364,6.61,8.174-3.835,13.155-9.938,18.242-17.2" transform="translate(-336.845 -205.32)" fill="none" stroke="#174d5a" stroke-miterlimit="10" stroke-width="2"/>
    <path id="Tracé_340" data-name="Tracé 340" d="M409.2,378.725c6.816,12.76,12.751,28.191,11.152,42.951-1.841,16.141-11.5,28.845-18.8,42.692a58.971,58.971,0,0,0-6.834,23" transform="translate(-226.671 -322.522)" fill="none" stroke="#174d5a" stroke-miterlimit="10" stroke-width="1"/>
    <path id="Tracé_341" data-name="Tracé 341" d="M411.105,378.875c5.034,12.43,7.859,26.7,3.417,39.87-4.533,13.567-11.912,26.295-15.467,40.006a64.615,64.615,0,0,0-2.006,22.616" transform="translate(-228.852 -322.23)" fill="none" stroke="#174d5a" stroke-miterlimit="10" stroke-width="1"/>
    <path id="Tracé_342" data-name="Tracé 342" d="M416.515,378.91c1.049,17.158-.4,30.18-7.455,45.859-5.594,12.306-10.981,22.292-10.875,36.268a89.456,89.456,0,0,0,2.7,20.928" transform="translate(-233.1 -322.162)" fill="none" stroke="#174d5a" stroke-miterlimit="10" stroke-width="1"/>
    <path id="Tracé_343" data-name="Tracé 343" d="M411.241,378.919c2.89,16.15.7,31.62-3.146,47.3-2.945,11.484-9.158,23.558-9.564,35.384-.029,6.25-.56,13.57.887,19.658" transform="translate(-229.524 -322.144)" fill="none" stroke="#174d5a" stroke-miterlimit="10" stroke-width="1"/>
    <path id="Tracé_344" data-name="Tracé 344" d="M409.89,379.261c3.328,13.211,6.8,25.44,2.987,38.837-3.084,11.708-6.7,22.786-10.8,34.168-2.725,7.65-5.72,15.741-5.5,23.826" transform="translate(-226.043 -321.479)" fill="none" stroke="#174d5a" stroke-miterlimit="10" stroke-width="1"/>
    <path id="Tracé_345" data-name="Tracé 345" d="M418.647,379.223c3.1,17.809-5.2,32.268-13.411,47.084a56.7,56.7,0,0,0-6.038,35.116,154.454,154.454,0,0,0,4.233,20.189" transform="translate(-236.718 -321.553)" fill="none" stroke="#174d5a" stroke-miterlimit="10" stroke-width="1"/>
    <path id="Tracé_346" data-name="Tracé 346" d="M410.983,380.966c7.037,12.9,13.52,25.046,14.239,40.012.71,15.726-12.657,28.745-20.884,41.1-4.321,6.515-8.946,12.533-12.153,19.729" transform="translate(-223.861 -318.162)" fill="none" stroke="#174d5a" stroke-miterlimit="10" stroke-width="1"/>
    <path id="Tracé_347" data-name="Tracé 347" d="M414.825,382.806c5.844,11.856,12.442,24.48,13.355,37.885,1.052,17.16-9.152,26.775-20.047,38.256-6.015,6.539-12.339,12.583-16.937,20.3" transform="translate(-223.956 -314.582)" fill="none" stroke="#174d5a" stroke-miterlimit="10" stroke-width="1"/>
    <path id="Tracé_348" data-name="Tracé 348" d="M416.554,382.844c7.125,13.255,13.638,28.736,13.505,44.1-.3,17.856-10.775,23.938-22.206,35.549-5.467,5.652-12.881,9.493-17.334,16.23" transform="translate(-223.764 -314.508)" fill="none" stroke="#174d5a" stroke-miterlimit="10" stroke-width="1"/>
    <path id="Tracé_349" data-name="Tracé 349" d="M421.271,385.424c5.794,12.439,10.289,24.99,9.77,38.737-.686,17.007-9.093,25.437-21.929,35.11-7.075,5.275-13.429,10.383-18.916,17.549" transform="translate(-223.837 -309.489)" fill="none" stroke="#174d5a" stroke-miterlimit="10" stroke-width="1"/>
    <path id="Tracé_350" data-name="Tracé 350" d="M436.676,374.239c-.162,6.471-3.411,16.7-4.477,24.15-.6,5.44.085,15.493-5.178,18.828" transform="translate(-337.899 -331.249)" fill="none" stroke="#174d5a" stroke-miterlimit="10" stroke-width="1"/>
    <path id="Tracé_351" data-name="Tracé 351" d="M433.8,375.044c-.079,6.831,2.05,34.9-6.957,37.6" transform="translate(-334.643 -329.683)" fill="none" stroke="#174d5a" stroke-miterlimit="10" stroke-width="1"/>
    <path id="Tracé_352" data-name="Tracé 352" d="M438.227,373.307c-2.925,13.181-14.474,27.47-9.152,41.909" transform="translate(-341.426 -333.062)" fill="none" stroke="#174d5a" stroke-miterlimit="10" stroke-width="1"/>
    <path id="Tracé_353" data-name="Tracé 353" d="M439.54,361.578c3.552,9.373,10.7,16.377,15.423,25.1A98.228,98.228,0,0,1,463.3,407.4c.819,2.642,1.944,5.782,1.1,8.63" transform="translate(-402.795 -355.881)" fill="none" stroke="#174d5a" stroke-miterlimit="10" stroke-width="1"/>
    <path id="Tracé_354" data-name="Tracé 354" d="M438.318,361.752c6.194,16.5,24.368,27.7,26.836,46.035.524,4.607-1.2,6.91-2.589,11.4" transform="translate(-399.75 -355.543)" fill="none" stroke="#174d5a" stroke-miterlimit="10" stroke-width="1"/>
    <path id="Tracé_355" data-name="Tracé 355" d="M437.194,361.4c7.543,15.809,31.2,23.806,29.864,42.857-.395,7.1-4.457,10.71-7.163,16.842" transform="translate(-398.302 -356.22)" fill="none" stroke="#174d5a" stroke-miterlimit="10" stroke-width="1"/>
    <path id="Tracé_356" data-name="Tracé 356" d="M439.647,361.931c4.253,17.909,8.359,33.585,20.784,47.661,1.894,2.389,4.3,6.168,6.836,7.269" transform="translate(-405.679 -355.195)" fill="none" stroke="#174d5a" stroke-miterlimit="10" stroke-width="1"/>
    <path id="Tracé_357" data-name="Tracé 357" d="M439.149,361.723c1.947,16.946,4.442,36.218,16.66,49.4,2.513,2.619,7.281,7.543,11.44,6.742" transform="translate(-404.195 -355.599)" fill="none" stroke="#174d5a" stroke-miterlimit="10" stroke-width="1"/>
    <path id="Tracé_358" data-name="Tracé 358" d="M497.962,405.266c-3.764-6.3-16.462-8.766-23-10.807-8.006-2.639-15.237-6.786-23.108-9.649-3.912-1.34-8.015-1.876-11.426-4.286" transform="translate(-438.672 -319.022)" fill="none" stroke="#174d5a" stroke-miterlimit="10" stroke-width="1"/>
    <path id="Tracé_359" data-name="Tracé 359" d="M496.862,404.134a3.8,3.8,0,0,0,.972.9l.18-.044c-7.773-15.181-31.137-17.953-46.1-21.211a87.058,87.058,0,0,1-11.655-3.664" transform="translate(-438.217 -319.815)" fill="none" stroke="#174d5a" stroke-miterlimit="10" stroke-width="1"/>
    <path id="Tracé_360" data-name="Tracé 360" d="M441.182,380.609c12.418,10.863,26.94,21.794,43.6,25.022,2.943.436,7.311,1.293,9.57-1.137" transform="translate(-437.285 -318.856)" fill="none" stroke="#174d5a" stroke-miterlimit="10" stroke-width="1"/>
    <path id="Tracé_361" data-name="Tracé 361" d="M440.247,381.623c13.835,12.038,23.935,26.669,44.454,24.63a26.393,26.393,0,0,0,8.112-2.492" transform="translate(-432.992 -316.884)" fill="none" stroke="#174d5a" stroke-miterlimit="10" stroke-width="1"/>
    <path id="Tracé_362" data-name="Tracé 362" d="M519.187,444.785c-8.734-12.875-22.96-14.6-36.834-15.661-14.012-.831-28.857-2.789-41.511-9.055-5.328-2.518-13.532-7.57-17.27-12.171h0l-.047-.177c4.722,12.689,20.6,18.189,32.389,21.632,13,3.723,26.733,5,39.823,8.324,6.677,1.82,13.4,3.817,18.383,8.875" transform="translate(-410.115 -266.108)" fill="none" stroke="#174d5a" stroke-miterlimit="10" stroke-width="1"/>
    <path id="Tracé_363" data-name="Tracé 363" d="M512.564,445.438c-13.379-5.337-26.424-8.48-40.368-11.411-12.781-2.828-25.155-6.324-35.776-14.395a37.168,37.168,0,0,1-9.735-11.5" transform="translate(-412.797 -265.308)" fill="none" stroke="#174d5a" stroke-miterlimit="10" stroke-width="1"/>
    <path id="Tracé_364" data-name="Tracé 364" d="M437.026,408.147c4.789,10.595,8.9,17.564,19.741,22.56a120.854,120.854,0,0,0,25.052,7.482c3.605.845,7.794,1.744,10.8,4.053" transform="translate(-423.315 -265.281)" fill="none" stroke="#174d5a" stroke-miterlimit="10" stroke-width="1"/>
    <path id="Tracé_365" data-name="Tracé 365" d="M452.485,408.431c2.739,5.971,5.747,16.23,11.187,20.8" transform="translate(-439.899 -264.728)" fill="none" stroke="#174d5a" stroke-miterlimit="10" stroke-width="1"/>
    <path id="Tracé_366" data-name="Tracé 366" d="M514.228,442.131c-13.511,10.021-27.62,17.538-44.913,14.836-15.87-2.283-31.479-11.443-36.566-27.264-2.377-6.813-3.953-13.44-6.822-19.95" transform="translate(-412.228 -262.154)" fill="none" stroke="#174d5a" stroke-miterlimit="10" stroke-width="1"/>
    <path id="Tracé_367" data-name="Tracé 367" d="M508,435.646c-12.027,5.128-26.006,9.208-39.387,7.847-11.859-1.343-24.683-8.327-33.29-16.686-4.863-4.521-5.62-8.507-8.141-14.339" transform="translate(-409.69 -256.874)" fill="none" stroke="#174d5a" stroke-miterlimit="10" stroke-width="1"/>
    <path id="Tracé_368" data-name="Tracé 368" d="M432.333,412.574c8.742,20.065,34.574,33.222,56.792,27.19,2.465-.778,7.131-2.642,8.583-4.5" transform="translate(-414.578 -256.668)" fill="none" stroke="#174d5a" stroke-miterlimit="10" stroke-width="1"/>
    <path id="Tracé_369" data-name="Tracé 369" d="M479.685,425.567c-11.667,1.069-24.928,1-36.089-2.966a64.363,64.363,0,0,1-10.215-4.763" transform="translate(-399.644 -246.427)" fill="none" stroke="#174d5a" stroke-miterlimit="10" stroke-width="1"/>
    <path id="Tracé_370" data-name="Tracé 370" d="M426.743,413.33c4.913,15.108,14.639,23.393,29.04,29.052,11.107,4.551,24.943,5.426,36.236,1.985a40.454,40.454,0,0,0,17.169-9.755" transform="translate(-409.591 -255.197)" fill="none" stroke="#174d5a" stroke-miterlimit="10" stroke-width="1"/>
    <path id="Tracé_371" data-name="Tracé 371" d="M502.147,465.924c.156,2.236-1.685-.733-3.06-1.732-3.673-2.725-6.545-5.258-10.63-7.314-7.458-3.526-13.87-5.028-22.324-3.968-14.577,1.57-30.592,4.242-44.772-1.281-5.823-2.212-15.116-5.49-18.439-11.514,8.931,11.314,20.763,18.907,35.219,20.015,13.116,1.049,26.4-1.164,39.143,1.484,5.968,1.231,15,4.194,17.92,10.124" transform="translate(-332.394 -203.085)" fill="none" stroke="#174d5a" stroke-miterlimit="10" stroke-width="1"/>
    <path id="Tracé_372" data-name="Tracé 372" d="M498.193,468.126c-12.018-10.766-24.424-15.2-40.654-13.426-14.177,1.667-25.918,1.62-38.878-5.14a103.68,103.68,0,0,1-14.135-9.32" transform="translate(-333.156 -202.841)" fill="none" stroke="#174d5a" stroke-miterlimit="10" stroke-width="1"/>
    <path id="Tracé_373" data-name="Tracé 373" d="M403.553,439.813c11.4,9.776,29.467,11.729,43.717,11.181,6.389-.194,12.8,1.311,19.052,1.34,6.474.162,11.172-.763,17.617,1.679,6.492,2.619,15.511,6.342,17.2,14.265" transform="translate(-333.241 -203.674)" fill="none" stroke="#174d5a" stroke-miterlimit="10" stroke-width="1"/>
    <path id="Tracé_374" data-name="Tracé 374" d="M421.084,440.082c6.38,4.539,9.8,13.376,15.95,18.536,5.482,4.754,13.311,7.434,20.259,8.81,3.564.669,7.172,1.514,10.692,2" transform="translate(-351.72 -203.151)" fill="none" stroke="#174d5a" stroke-miterlimit="10" stroke-width="1"/>
    <path id="Tracé_375" data-name="Tracé 375" d="M404.879,439.972c4.7,6.262,7.432,13.75,12.406,19.567,5.594,6.807,14.28,12.312,22.374,15.311,12.892,4.884,30.186,3.611,43.3.683,6.133-1.27,12.436-1.82,17.573-5.691" transform="translate(-336.537 -203.365)" fill="none" stroke="#174d5a" stroke-miterlimit="10" stroke-width="1"/>
    <path id="Tracé_376" data-name="Tracé 376" d="M482.89,461.049c-11.122.183-19.334-4.112-29.982-5.932q-15.711-2.8-31.7-4.389c-5.437-.6-10.165-1.367-14.265-5.882" transform="translate(-324.972 -193.882)" fill="none" stroke="#174d5a" stroke-miterlimit="10" stroke-width="1"/>
    <path id="Tracé_377" data-name="Tracé 377" d="M405.435,441.176c3.493,6.739,4.153,15.1,8.772,21,5.063,6.174,12.7,10.418,19.985,13.225a96.163,96.163,0,0,0,44.993,5.393c8.495-.884,14.056-2.963,18.477-10.633" transform="translate(-335.302 -201.022)" fill="none" stroke="#174d5a" stroke-miterlimit="10" stroke-width="1"/>
    <path id="Tracé_378" data-name="Tracé 378" d="M409.381,442.739c5,11.493,8.141,21.532,18.722,29.423,9.915,7.485,25.143,11.054,37.331,11.376,8.032.362,16.194-2.713,24.024-4.006" transform="translate(-338.721 -197.982)" fill="none" stroke="#174d5a" stroke-miterlimit="10" stroke-width="1"/>
    <path id="Tracé_379" data-name="Tracé 379" d="M385.114,393.9c-1.431,15.476-.807,30.845-4.515,46.295-3.85,16.433-9.658,31.814-15.6,47.42-3.184,8.893-3.691,17.906-3.932,27.237" transform="translate(-92.059 -293.002)" fill="none" stroke="#174d5a" stroke-miterlimit="10" stroke-width="1"/>
    <path id="Tracé_380" data-name="Tracé 380" d="M386.346,394.532c-2.539,18.769-5.891,38.109-12.218,56.074-4.8,13.252-11.3,27.284-12.63,41.6-.489,7.5-.144,16.121,1.779,23.423" transform="translate(-93.984 -291.769)" fill="none" stroke="#174d5a" stroke-miterlimit="10" stroke-width="1"/>
    <path id="Tracé_381" data-name="Tracé 381" d="M385.408,402.577c-2.993,15.281-10.33,28.189-17.1,41.909-4.763,10.212-5.611,21.767-5.249,32.848a122.746,122.746,0,0,0,3.591,21.473" transform="translate(-98.009 -276.117)" fill="none" stroke="#174d5a" stroke-miterlimit="10" stroke-width="1"/>
    <path id="Tracé_382" data-name="Tracé 382" d="M384.332,407.978c-4.957,11.779-13.476,22.127-16.789,34.457-2.374,8.321-2.566,17.072-2.262,25.514.23,7.326.907,14.165,3.325,21.161" transform="translate(-103.371 -265.61)" fill="none" stroke="#174d5a" stroke-miterlimit="10" stroke-width="1"/>
    <path id="Tracé_383" data-name="Tracé 383" d="M361.924,394.478c-2.819,12.021.657,24.25-.245,36.386" transform="translate(-68.085 -291.874)" fill="none" stroke="#174d5a" stroke-miterlimit="10" stroke-width="1"/>
    <path id="Tracé_384" data-name="Tracé 384" d="M384.514,394.8c.059,17.77,2.893,35.267.495,53.052-1.935,16.545-6.76,32.071-13.591,47.128-3.44,7.82-8.386,14.86-11.384,22.954" transform="translate(-89.88 -291.249)" fill="none" stroke="#174d5a" stroke-miterlimit="10" stroke-width="1"/>
    <path id="Tracé_385" data-name="Tracé 385" d="M383.786,396.076c-.389,18.256,5.161,36.05,3.476,54.427a112.566,112.566,0,0,1-12.5,42.138c-4.065,7.588-8.925,14.99-15.82,20.224" transform="translate(-88.263 -288.765)" fill="none" stroke="#174d5a" stroke-miterlimit="10" stroke-width="1"/>
    <path id="Tracé_386" data-name="Tracé 386" d="M369.4,397.538c1.744,26.457,11.367,55.01,1.022,80.742-3.219,7.956-6.43,15.152-12.754,21.2" transform="translate(-72.094 -285.921)" fill="none" stroke="#174d5a" stroke-miterlimit="10" stroke-width="1"/>
  </g>
</svg>
