<svg id="Calque_1" data-name="Calque 1" xmlns="http://www.w3.org/2000/svg" xmlns:xlink="http://www.w3.org/1999/xlink" viewBox="0 0 56.98 39.18"><defs><style>.cls-1,.cls-3{fill:none;}.cls-2{clip-path:url(#clip-path);}.cls-3{stroke:#ffffff;stroke-miterlimit:10;stroke-width:1.41px;}.cls-4{fill:#ffffff;}.cls-5{clip-path:url(#clip-path-2);}.cls-6{clip-path:url(#clip-path-3);}.cls-7{clip-path:url(#clip-path-4);}</style><clipPath id="clip-path" transform="translate(-21.12 -31.01)"><rect class="cls-1" x="22.07" y="31.18" width="55.87" height="37.64"/></clipPath><clipPath id="clip-path-2" transform="translate(-21.12 -31.01)"><polygon class="cls-1" points="57.09 39.3 71.09 39.3 71.09 34.84 57.09 34.17 57.09 39.3"/></clipPath><clipPath id="clip-path-3" transform="translate(-21.12 -31.01)"><path class="cls-1" d="M65.51,42.06a20.58,20.58,0,0,0-6.35.72c-3.73,1.34-5.32,4.61-5.23,8.43.14,5.77,2,13.69,8.5,15.32,4.41,1.1,11.61.69,14.16-3.79a9.67,9.67,0,0,0,1-4.72,14,14,0,0,0-4,0,12.41,12.41,0,0,0-2.65.16s-5.49,9.19-10.33-1.59H77.44c.52,0-.17-5.17-.27-5.75-.67-4-2.78-7.48-6.92-8.4A16.74,16.74,0,0,0,66.6,42l-1.09,0"/></clipPath><clipPath id="clip-path-4" transform="translate(-21.12 -31.01)"><path class="cls-1" d="M22.33,32.1V65.86c.34.57,3.54,1.51,4,1.62a29.25,29.25,0,0,0,8.21.78,21.33,21.33,0,0,0,13.38-5A9.17,9.17,0,0,0,49.63,52c-.19-.32-3.19-4.69-3.71-4.42a7.79,7.79,0,0,0,2.82-3.14,10,10,0,0,0-.12-8c-2-4.63-7.91-4.51-12.15-4.68-.51,0-3.08-.07-5.91-.07-3.72,0-7.85.08-8.24.38"/></clipPath></defs><title>behance</title><g class="cls-2"><path class="cls-3" d="M60.4,51.16H71.15s-.28-4.66-4.85-4.66S60.4,49,60.4,51.16Zm0,5.39H77.2c.52,0-.17-5.17-.27-5.75-.67-4-2.78-7.48-6.92-8.4a18.87,18.87,0,0,0-4.74-.33,20.61,20.61,0,0,0-6.35.72c-3.73,1.34-5.32,4.61-5.23,8.43.14,5.77,2,13.69,8.5,15.32,4.41,1.1,11.61.69,14.16-3.79a9.68,9.68,0,0,0,1-4.72,14,14,0,0,0-4,0,12.36,12.36,0,0,0-2.65.16S65.23,67.32,60.4,56.55ZM57.09,34.17V39.3h14V34.84ZM30.15,45.6V38.87S42.43,37.67,43,41.32,38.23,46.82,30.15,45.6ZM30.69,59V51s12.6-1,13.44,2.54S42.54,61.07,30.69,59Zm-8.08,6.72V32.15c0-.6,13-.42,14.17-.37,4.23.18,10.12.06,12.15,4.68a10,10,0,0,1,.12,8,7.79,7.79,0,0,1-2.82,3.14c.52-.27,3.52,4.1,3.71,4.42a9.17,9.17,0,0,1-1.74,11.3,21.33,21.33,0,0,1-13.38,5,29.31,29.31,0,0,1-8.21-.78C26.15,67.36,22.61,66.32,22.61,65.76Z" transform="translate(-21.12 -31.01)"/><path class="cls-4" d="M71.94,49.49q-.5.47-1,1c-.2.22.1.58.3.36s.63-.67,1-1-.08-.56-.3-.36" transform="translate(-21.12 -31.01)"/><path class="cls-4" d="M71.87,47.9A8.49,8.49,0,0,0,71,49.21a.23.23,0,0,0,.4.22,7.79,7.79,0,0,1,.85-1.2c.19-.23-.14-.55-.33-.32" transform="translate(-21.12 -31.01)"/><path class="cls-4" d="M71.17,46.65a7.07,7.07,0,0,1-1.09,1.23c-.22.2.11.52.33.32A7,7,0,0,0,71.5,47c.17-.24-.16-.57-.33-.32" transform="translate(-21.12 -31.01)"/><path class="cls-4" d="M69.6,46a3.84,3.84,0,0,0-.84,1.19c-.12.27.28.49.4.22a3.47,3.47,0,0,1,.77-1.09c.22-.21-.12-.53-.33-.32" transform="translate(-21.12 -31.01)"/><path class="cls-4" d="M68.33,45.49a3.87,3.87,0,0,0-.79,1.12c-.13.27.27.49.4.22a3.49,3.49,0,0,1,.72-1c.21-.21-.12-.53-.33-.32" transform="translate(-21.12 -31.01)"/><path class="cls-4" d="M66.83,45l-1.28,1.54c-.19.23.14.55.33.32l1.28-1.54c.19-.23-.14-.55-.33-.32" transform="translate(-21.12 -31.01)"/><path class="cls-4" d="M65.19,45q-.73.68-1.41,1.41c-.2.22.13.54.33.32q.68-.74,1.41-1.41c.22-.2-.12-.52-.33-.32" transform="translate(-21.12 -31.01)"/></g><g class="cls-5"><path class="cls-4" d="M58.55,35a5.3,5.3,0,0,0-2.22,1.41c-.18.19.11.48.29.29a4.88,4.88,0,0,1,2-1.31c.25-.08.14-.47-.11-.39" transform="translate(-21.12 -31.01)"/><path class="cls-4" d="M59.13,35.25l-3,2c-.22.15,0,.5.2.35l3-2c.21-.15,0-.5-.2-.35" transform="translate(-21.12 -31.01)"/><path class="cls-4" d="M59.86,36a21.15,21.15,0,0,0-3.32,2.18c-.2.16.08.45.29.29a20.64,20.64,0,0,1,3.24-2.11c.23-.12,0-.47-.2-.35" transform="translate(-21.12 -31.01)"/><path class="cls-4" d="M60.48,36.65a33.51,33.51,0,0,0-3.75,2c-.22.14,0,.49.2.35a33.57,33.57,0,0,1,3.75-2c.24-.11,0-.46-.2-.35" transform="translate(-21.12 -31.01)"/><path class="cls-4" d="M61.55,37.07a39.58,39.58,0,0,0-4.42,2.44c-.22.14,0,.49.2.35a39.44,39.44,0,0,1,4.42-2.44c.24-.11,0-.46-.2-.35" transform="translate(-21.12 -31.01)"/><path class="cls-4" d="M63.27,37.31a34.49,34.49,0,0,0-4.72,2.36.2.2,0,0,0,.2.35,33.74,33.74,0,0,1,4.63-2.32c.24-.1.13-.49-.11-.39" transform="translate(-21.12 -31.01)"/><path class="cls-4" d="M64.73,37.46q-2.15.93-4.2,2.08c-.23.13,0,.48.2.35a46.7,46.7,0,0,1,4.2-2.08c.24-.1,0-.45-.2-.35" transform="translate(-21.12 -31.01)"/><path class="cls-4" d="M66.08,37.69l-4,1.86c-.24.11,0,.46.2.35l4-1.86c.24-.11,0-.46-.2-.35" transform="translate(-21.12 -31.01)"/><path class="cls-4" d="M67.59,38.18,64.71,39.5c-.24.11,0,.46.2.35l2.88-1.32c.24-.11,0-.46-.2-.35" transform="translate(-21.12 -31.01)"/><path class="cls-4" d="M69.24,38.47l-2.88,1.32c-.24.11,0,.46.2.35l2.88-1.32c.24-.11,0-.46-.2-.35" transform="translate(-21.12 -31.01)"/></g><g class="cls-6"><path class="cls-4" d="M62.79,66.15a40.88,40.88,0,0,0-2.33,3.64c-.17.3.29.58.46.28a40.77,40.77,0,0,1,2.33-3.64c.2-.28-.26-.56-.46-.28" transform="translate(-21.12 -31.01)"/><path class="cls-4" d="M62.32,65.4a16.51,16.51,0,0,0-2,2.56c-.19.29.27.57.46.28a15.75,15.75,0,0,1,1.93-2.45c.24-.25-.13-.64-.37-.39" transform="translate(-21.12 -31.01)"/><path class="cls-4" d="M61,64.32A25.75,25.75,0,0,0,59,67c-.19.29.27.57.46.28a24.79,24.79,0,0,1,1.94-2.6c.22-.26-.15-.65-.37-.39" transform="translate(-21.12 -31.01)"/><path class="cls-4" d="M60.51,63.08q-1.13,1.22-2.19,2.51c-.22.26.15.66.37.39q1.06-1.29,2.19-2.51c.24-.25-.14-.65-.37-.39" transform="translate(-21.12 -31.01)"/><path class="cls-4" d="M59.3,62.09a16.22,16.22,0,0,0-1.58,2.2.27.27,0,0,0,.46.28,15.34,15.34,0,0,1,1.49-2.09c.22-.26-.15-.65-.37-.39" transform="translate(-21.12 -31.01)"/><path class="cls-4" d="M59.67,59.81,58,61.71a10.35,10.35,0,0,0-1.36,1.67c-.17.3.29.58.46.28a11.08,11.08,0,0,1,1.46-1.77L60,60.2c.23-.26-.14-.65-.37-.39" transform="translate(-21.12 -31.01)"/><path class="cls-4" d="M58.32,58.69q-1.34,1.51-2.66,3c-.22.26.15.65.37.39q1.32-1.53,2.66-3c.23-.26-.14-.65-.37-.39" transform="translate(-21.12 -31.01)"/><path class="cls-4" d="M58.2,56.87l-1.86,2c-.36.37-1.12.88-1.11,1.45,0,.35.55.35.54,0s.6-.71.75-.87l.65-.68,1.4-1.47c.24-.25-.13-.64-.37-.39" transform="translate(-21.12 -31.01)"/><path class="cls-4" d="M57,55.88a37.18,37.18,0,0,1-2.59,2.68c-.25.24.12.63.37.39q1.36-1.27,2.59-2.68c.23-.26-.14-.65-.37-.39" transform="translate(-21.12 -31.01)"/><path class="cls-4" d="M57.37,53.06q-1.65,1.69-3.24,3.43c-.23.26.14.65.37.39q1.6-1.74,3.24-3.43c.24-.25-.13-.64-.37-.39" transform="translate(-21.12 -31.01)"/><path class="cls-4" d="M56.82,51.51q-1.34,1.44-2.77,2.8a.27.27,0,0,0,.37.39q1.43-1.36,2.77-2.8c.24-.25-.13-.64-.37-.39" transform="translate(-21.12 -31.01)"/><path class="cls-4" d="M57.85,48.33l-2.24,2A7.46,7.46,0,0,0,54,52.16c-.17.3.29.58.46.28a8.31,8.31,0,0,1,1.83-1.91l2-1.8c.26-.23-.11-.62-.37-.39" transform="translate(-21.12 -31.01)"/><path class="cls-4" d="M58.76,45.6,54,50.05a.27.27,0,0,0,.37.39L59.13,46a.27.27,0,0,0-.37-.39" transform="translate(-21.12 -31.01)"/><path class="cls-4" d="M59.38,43.09l-5.11,4.6c-.26.23.11.62.37.39l5.11-4.6c.26-.23-.11-.62-.37-.39" transform="translate(-21.12 -31.01)"/></g><g class="cls-7"><path class="cls-4" d="M26.56,33.8a19.58,19.58,0,0,0-5.16,3.86c-.24.25.18.59.42.34a18.75,18.75,0,0,1,4.93-3.7c.3-.16.12-.66-.19-.5" transform="translate(-21.12 -31.01)"/><path class="cls-4" d="M26,35.66a18.87,18.87,0,0,0-4.43,3.28c-.25.24.17.58.42.34a18.42,18.42,0,0,1,4.33-3.18c.31-.16,0-.6-.31-.44" transform="translate(-21.12 -31.01)"/><path class="cls-4" d="M25.75,37a42.86,42.86,0,0,0-4.22,3.25c-.26.23.05.67.31.44a42.85,42.85,0,0,1,4.23-3.25c.29-.19,0-.63-.31-.44" transform="translate(-21.12 -31.01)"/><path class="cls-4" d="M25.52,38.71q-2,1.22-3.87,2.63c-.28.21,0,.65.31.44q1.87-1.41,3.87-2.63c.3-.18,0-.62-.31-.44" transform="translate(-21.12 -31.01)"/><path class="cls-4" d="M24.89,40.34a12,12,0,0,0-1.74,1.16,15.14,15.14,0,0,1-1.58,1.25.26.26,0,0,0-.23.08l-.15.15c-.19.19.07.53.3.42a8.7,8.7,0,0,0,1.76-1.31,12.63,12.63,0,0,1,2-1.33c.3-.16,0-.6-.31-.44" transform="translate(-21.12 -31.01)"/><path class="cls-4" d="M25,42.13a28.4,28.4,0,0,0-3.67,2.59c-.26.22,0,.66.31.44a28.37,28.37,0,0,1,3.67-2.59c.3-.18,0-.61-.31-.44" transform="translate(-21.12 -31.01)"/><path class="cls-4" d="M25.25,43.78A14.84,14.84,0,0,0,23.39,45c-.59.46-1.12,1-1.75,1.43-.29.19,0,.63.31.44.63-.41,1.16-1,1.75-1.43a14.93,14.93,0,0,1,1.86-1.22c.3-.17,0-.61-.31-.44" transform="translate(-21.12 -31.01)"/><path class="cls-4" d="M25.17,45.67A26.43,26.43,0,0,0,21.85,48c-.26.22,0,.66.31.44a26.31,26.31,0,0,1,3.33-2.38c.3-.18,0-.62-.31-.44" transform="translate(-21.12 -31.01)"/><path class="cls-4" d="M24.69,47.5a24.12,24.12,0,0,0-3,2.2c-.26.23.05.67.31.44a24.19,24.19,0,0,1,3-2.2c.29-.18,0-.62-.31-.44" transform="translate(-21.12 -31.01)"/><path class="cls-4" d="M24.8,48.94a26.49,26.49,0,0,0-3.37,2.7c-.25.24.17.58.42.34a25.58,25.58,0,0,1,3.26-2.6c.29-.19,0-.63-.31-.44" transform="translate(-21.12 -31.01)"/><path class="cls-4" d="M24.72,50.75Q23,52.1,21.39,53.6c-.25.24.17.58.42.34q1.54-1.46,3.22-2.76c.27-.21,0-.65-.31-.44" transform="translate(-21.12 -31.01)"/><path class="cls-4" d="M25,52.76a23.41,23.41,0,0,0-2.83,2.4c-.25.24.17.58.42.34a22.5,22.5,0,0,1,2.72-2.3.27.27,0,0,0-.31-.44" transform="translate(-21.12 -31.01)"/><path class="cls-4" d="M25.16,54.43a27,27,0,0,0-3,2.33c-.25.23.06.67.31.44a27,27,0,0,1,3-2.34c.29-.19,0-.63-.31-.44" transform="translate(-21.12 -31.01)"/><path class="cls-4" d="M25.44,55.78a30,30,0,0,0-3.25,2.67c-.25.24.17.58.42.34a29,29,0,0,1,3.14-2.57.27.27,0,0,0-.31-.44" transform="translate(-21.12 -31.01)"/><path class="cls-4" d="M25.22,57.57a27.63,27.63,0,0,0-2.36,1.95c-.25.23.06.67.31.44A27.63,27.63,0,0,1,25.54,58c.28-.2,0-.64-.31-.44" transform="translate(-21.12 -31.01)"/><path class="cls-4" d="M25.79,59.87a16.78,16.78,0,0,0-3.15,2.6c-.24.25.18.59.42.34a16.25,16.25,0,0,1,3-2.5c.29-.19,0-.62-.31-.44" transform="translate(-21.12 -31.01)"/><path class="cls-4" d="M25.57,62.41a21.12,21.12,0,0,0-2.73,2.43c-.24.25.18.59.42.34a20.27,20.27,0,0,1,2.63-2.33c.28-.21,0-.65-.31-.44" transform="translate(-21.12 -31.01)"/><path class="cls-4" d="M26.34,63.77a22,22,0,0,0-2.77,2.57c-.23.26.18.6.42.34a21.3,21.3,0,0,1,2.67-2.47c.27-.21,0-.65-.31-.44" transform="translate(-21.12 -31.01)"/><path class="cls-4" d="M26.37,32.38a48.81,48.81,0,0,0-4.74,3,.27.27,0,0,0,.31.44,49,49,0,0,1,4.74-3c.3-.17,0-.6-.31-.44" transform="translate(-21.12 -31.01)"/><path class="cls-4" d="M27.25,65l-2.39,3.09c-.21.27.17.65.38.38l2.39-3.09c.21-.27-.17-.65-.38-.38" transform="translate(-21.12 -31.01)"/><path class="cls-4" d="M29,65a35.35,35.35,0,0,0-2.71,3.5c-.19.29.28.55.47.26a34.28,34.28,0,0,1,2.63-3.38c.23-.26-.15-.64-.38-.38" transform="translate(-21.12 -31.01)"/><path class="cls-4" d="M30.44,65.37,27.39,69c-.22.26.16.65.38.38l3.05-3.67c.22-.26-.16-.65-.38-.38" transform="translate(-21.12 -31.01)"/><path class="cls-4" d="M32.48,65.55,31,67.3l-.7.82c-.22.25-.48.73-.82.84s-.18.63.15.52c.62-.21,1-1,1.45-1.45l1.79-2.1c.22-.26-.16-.64-.38-.38" transform="translate(-21.12 -31.01)"/><path class="cls-4" d="M34.8,65.33a36.06,36.06,0,0,0-3.49,3.59c-.22.26.16.64.38.38a36.06,36.06,0,0,1,3.49-3.59c.26-.23-.13-.61-.38-.38" transform="translate(-21.12 -31.01)"/><path class="cls-4" d="M36.3,65.47c-1,1-2,2.11-3,3.13-.25.25.14.62.38.38,1-1,2-2.08,3-3.13.24-.25-.14-.63-.38-.38" transform="translate(-21.12 -31.01)"/><path class="cls-4" d="M37.88,66.15c-1,1-2,2.11-3,3.13-.25.25.14.62.38.38,1-1,2-2.08,3-3.13.24-.25-.14-.63-.38-.38" transform="translate(-21.12 -31.01)"/><path class="cls-4" d="M40,66.53c-1,1-2,2.11-3,3.13-.25.25.14.62.38.38,1-1,2-2.08,3-3.13.24-.25-.14-.63-.38-.38" transform="translate(-21.12 -31.01)"/><path class="cls-4" d="M44,41.5q-.53.44-1,.93c-.21.21.06.58.28.37s.67-.63,1-.93,0-.56-.27-.37" transform="translate(-21.12 -31.01)"/><path class="cls-4" d="M44,39.92a8.43,8.43,0,0,0-1,1.25.23.23,0,0,0,.39.24,7.75,7.75,0,0,1,.92-1.15c.21-.21-.11-.56-.31-.34" transform="translate(-21.12 -31.01)"/><path class="cls-4" d="M43.43,38.48a7.07,7.07,0,0,1-1.16,1.16c-.23.18.08.52.31.34a7.06,7.06,0,0,0,1.16-1.16c.18-.23-.13-.58-.31-.34" transform="translate(-21.12 -31.01)"/><path class="cls-4" d="M41.89,37.89A3.84,3.84,0,0,0,41,39c-.14.27.25.51.39.24a3.48,3.48,0,0,1,.83-1c.23-.19-.09-.53-.31-.34" transform="translate(-21.12 -31.01)"/><path class="cls-4" d="M40.08,37.65a3.86,3.86,0,0,0-.86,1.07c-.15.26.24.51.39.24a3.5,3.5,0,0,1,.78-1c.23-.2-.09-.54-.31-.34" transform="translate(-21.12 -31.01)"/><path class="cls-4" d="M39.19,36.72l-1.37,1.46c-.2.22.11.56.31.34l1.37-1.46c.2-.22-.11-.56-.31-.34" transform="translate(-21.12 -31.01)"/><path class="cls-4" d="M37.55,36.63q-.77.63-1.49,1.33c-.21.21.1.55.31.34q.72-.69,1.49-1.33c.23-.19-.08-.53-.31-.34" transform="translate(-21.12 -31.01)"/><path class="cls-4" d="M35.65,36.65,34.23,38.1c-.21.21.1.55.31.34L36,37c.21-.21-.1-.56-.31-.34" transform="translate(-21.12 -31.01)"/><path class="cls-4" d="M33.5,37.35l-1,1.05c-.21.21.1.55.31.34l1-1.05c.21-.21-.1-.55-.31-.34" transform="translate(-21.12 -31.01)"/><path class="cls-4" d="M45.09,53.62q-.53.44-1,.93c-.21.21.06.58.28.37s.67-.63,1-.93,0-.56-.28-.37" transform="translate(-21.12 -31.01)"/><path class="cls-4" d="M45.12,52a8.43,8.43,0,0,0-1,1.25.23.23,0,0,0,.39.24,7.75,7.75,0,0,1,.92-1.15c.21-.21-.11-.56-.31-.34" transform="translate(-21.12 -31.01)"/><path class="cls-4" d="M44.5,50.6a7.07,7.07,0,0,1-1.16,1.16c-.23.18.08.52.31.34a7,7,0,0,0,1.16-1.16c.18-.23-.13-.58-.31-.34" transform="translate(-21.12 -31.01)"/><path class="cls-4" d="M43,50a3.84,3.84,0,0,0-.91,1.14c-.14.27.25.51.39.24a3.48,3.48,0,0,1,.83-1c.23-.19-.09-.53-.31-.34" transform="translate(-21.12 -31.01)"/><path class="cls-4" d="M41.15,49.77a3.86,3.86,0,0,0-.86,1.07c-.15.26.24.51.39.24a3.5,3.5,0,0,1,.78-1c.23-.2-.09-.54-.31-.34" transform="translate(-21.12 -31.01)"/><path class="cls-4" d="M40.26,48.84,38.89,50.3c-.2.22.11.56.31.34l1.37-1.46c.2-.22-.11-.56-.31-.34" transform="translate(-21.12 -31.01)"/><path class="cls-4" d="M38.62,48.75q-.77.63-1.49,1.33c-.21.21.1.55.31.34q.72-.69,1.49-1.33c.23-.19-.08-.53-.31-.34" transform="translate(-21.12 -31.01)"/><path class="cls-4" d="M36.71,48.77l-1.42,1.44c-.21.21.1.55.31.34L37,49.11c.21-.21-.1-.56-.31-.34" transform="translate(-21.12 -31.01)"/><path class="cls-4" d="M34.57,49.47l-1,1.05c-.21.21.1.55.31.34l1-1.05c.21-.21-.1-.55-.31-.34" transform="translate(-21.12 -31.01)"/></g></svg>
