<svg id="Calque_1" data-name="Calque 1" xmlns="http://www.w3.org/2000/svg" xmlns:xlink="http://www.w3.org/1999/xlink" viewBox="0 0 56.95 49.85"><defs><style>.cls-1{fill:none;}.cls-2{clip-path:url(#clip-path);}.cls-3{fill:#ffffff;}</style><clipPath id="clip-path" transform="translate(-21.52 -24.18)"><rect class="cls-1" x="21.52" y="24.18" width="56.95" height="49.85"/></clipPath></defs><title>linkedin</title><g class="cls-2"><path class="cls-3" d="M26.83,27.45a41.33,41.33,0,0,0-4.24,2.17c-.34.2,0,.69.33.49a41.57,41.57,0,0,1,4.23-2.16c.37-.16,0-.65-.33-.49" transform="translate(-21.52 -24.18)"/><path class="cls-3" d="M27.24,28.32q-2.11,1.17-4.31,2.18c-.37.17,0,.66.33.49q2.21-1,4.31-2.18c.35-.19,0-.69-.33-.49" transform="translate(-21.52 -24.18)"/><path class="cls-3" d="M27.71,29.8,23,32c-.37.17,0,.66.33.49L28,30.29c.37-.17,0-.66-.33-.49" transform="translate(-21.52 -24.18)"/><path class="cls-3" d="M28.18,31.36q-2.36,1.11-4.77,2.15c-.37.16,0,.65.33.49q2.4-1,4.77-2.15c.37-.17,0-.66-.33-.49" transform="translate(-21.52 -24.18)"/><path class="cls-3" d="M29,32.59q-2.25,1.17-4.53,2.28c-.36.18,0,.67.33.49q2.29-1.11,4.53-2.28c.36-.18,0-.68-.33-.49" transform="translate(-21.52 -24.18)"/><path class="cls-3" d="M30.58,33.58q-2.12,1-4.22,2.06c-.36.18,0,.67.33.49q2.09-1.05,4.22-2.06c.37-.17,0-.66-.33-.49" transform="translate(-21.52 -24.18)"/><path class="cls-3" d="M33.15,33a19,19,0,0,0-3.41,2.72c-.27.28.19.67.46.4a18.2,18.2,0,0,1,3.27-2.63.3.3,0,1,0-.33-.49" transform="translate(-21.52 -24.18)"/><path class="cls-3" d="M26.82,41.68A32,32,0,0,0,22.1,44c-.34.2,0,.7.33.49a32.33,32.33,0,0,1,4.72-2.32c.38-.15,0-.64-.33-.49" transform="translate(-21.52 -24.18)"/><path class="cls-3" d="M26,43.87q-1.59.9-3.15,1.84c-.34.2,0,.7.33.49q1.56-.94,3.15-1.84c.35-.2,0-.69-.33-.49" transform="translate(-21.52 -24.18)"/><path class="cls-3" d="M26,45.78a30.26,30.26,0,0,0-3.41,2.06.3.3,0,0,0,.33.49,30.55,30.55,0,0,1,3.41-2.06c.36-.18,0-.68-.33-.49" transform="translate(-21.52 -24.18)"/><path class="cls-3" d="M26,48l-3.64,1.93c-.36.19,0,.68.33.49l3.64-1.93c.36-.19,0-.68-.33-.49" transform="translate(-21.52 -24.18)"/><path class="cls-3" d="M26.11,49.92a29.09,29.09,0,0,0-4,1.84c-.35.2,0,.69.33.49a28.06,28.06,0,0,1,3.83-1.79.29.29,0,1,0-.18-.55" transform="translate(-21.52 -24.18)"/><path class="cls-3" d="M25.53,51.72l-3,1.63c-.35.19,0,.68.33.49l3-1.63c.35-.19,0-.68-.33-.49" transform="translate(-21.52 -24.18)"/><path class="cls-3" d="M25.78,53.38,22.1,55.76a.3.3,0,1,0,.33.49l3.67-2.38a.3.3,0,1,0-.33-.49" transform="translate(-21.52 -24.18)"/><path class="cls-3" d="M25.95,55.26a14.56,14.56,0,0,0-3.57,2.44c-.29.27.18.66.46.4a14,14,0,0,1,3.43-2.34c.36-.18,0-.67-.33-.49" transform="translate(-21.52 -24.18)"/><path class="cls-3" d="M25.68,57.49Q24,58.67,22.29,59.74a.3.3,0,1,0,.33.49q1.81-1.11,3.52-2.35c.32-.23-.15-.63-.46-.4" transform="translate(-21.52 -24.18)"/><path class="cls-3" d="M25.24,59.65a36.26,36.26,0,0,0-3.53,2.15.3.3,0,0,0,.33.49,36.21,36.21,0,0,1,3.52-2.15c.36-.19,0-.68-.33-.49" transform="translate(-21.52 -24.18)"/><path class="cls-3" d="M25.14,61.83a31.5,31.5,0,0,0-3.11,2c-.32.23.15.63.46.4a30.61,30.61,0,0,1,3-1.9c.35-.2,0-.69-.33-.49" transform="translate(-21.52 -24.18)"/><path class="cls-3" d="M25.71,63.29q-1.82,1-3.55,2.12a.3.3,0,1,0,.33.49c1.15-.74,2.34-1.45,3.55-2.12.35-.19,0-.69-.33-.49" transform="translate(-21.52 -24.18)"/><path class="cls-3" d="M25.54,64.92a40.78,40.78,0,0,0-3.63,2.53c-.31.24.16.64.46.4a39.52,39.52,0,0,1,3.5-2.43.3.3,0,1,0-.33-.49" transform="translate(-21.52 -24.18)"/><path class="cls-3" d="M26.65,66.13q-2.29,1.41-4.47,3c-.32.23,0,.72.33.49q2.18-1.55,4.47-3c.34-.21,0-.7-.33-.49" transform="translate(-21.52 -24.18)"/><path class="cls-3" d="M26.5,67.57l-4,2.81a.3.3,0,0,0,.33.49l4-2.81a.3.3,0,0,0-.33-.49" transform="translate(-21.52 -24.18)"/><path class="cls-3" d="M27.78,68.07Q25.3,69.58,23,71.29c-.32.24.15.63.46.4Q25.7,70,28.1,68.56c.34-.21,0-.7-.33-.49" transform="translate(-21.52 -24.18)"/><path class="cls-3" d="M29.62,68.57a58.93,58.93,0,0,0-5.39,3.76c-.31.24.16.64.46.4a58.12,58.12,0,0,1,5.25-3.66.3.3,0,1,0-.33-.49" transform="translate(-21.52 -24.18)"/><path class="cls-3" d="M31.49,69.25q-2.12,1.11-4.11,2.42a.3.3,0,1,0,.33.49q2-1.3,4.1-2.42c.36-.19,0-.68-.33-.49" transform="translate(-21.52 -24.18)"/><path class="cls-3" d="M32.92,70a19.68,19.68,0,0,0-2.55,1.52c-.32.23,0,.72.33.49a19.86,19.86,0,0,1,2.55-1.52c.36-.18,0-.67-.33-.49" transform="translate(-21.52 -24.18)"/><path class="cls-3" d="M45.89,42a12.15,12.15,0,0,0-2.54,1.51c-.31.24.15.64.46.4a11.46,11.46,0,0,1,2.4-1.41c.37-.16,0-.65-.33-.49" transform="translate(-21.52 -24.18)"/><path class="cls-3" d="M46,43.67l-3,2.2c-.32.23.15.63.46.4l3-2.2c.32-.23-.15-.63-.46-.4" transform="translate(-21.52 -24.18)"/><path class="cls-3" d="M45.49,45.78l-2.62,1.61a.3.3,0,1,0,.33.49l2.62-1.61c.34-.21,0-.7-.33-.49" transform="translate(-21.52 -24.18)"/><path class="cls-3" d="M46.85,47.2q-2,1-3.88,2.07c-.34.2,0,.69.33.49q1.9-1.11,3.88-2.07c.37-.18,0-.67-.33-.49" transform="translate(-21.52 -24.18)"/><path class="cls-3" d="M46,49a19.09,19.09,0,0,0-3.13,1.72.3.3,0,0,0,.33.49,19.06,19.06,0,0,1,3.13-1.72c.37-.16,0-.65-.33-.49" transform="translate(-21.52 -24.18)"/><path class="cls-3" d="M46.51,50.55l-1.77,1-.88.5c-.1.06-.35.23-.52.31a.37.37,0,0,0-.26,0l-.05,0a.28.28,0,0,0-.15.32l0,.06a.33.33,0,0,0,.31.21c.49,0,1.13-.53,1.52-.75L46.84,51c.35-.2,0-.69-.33-.49" transform="translate(-21.52 -24.18)"/><path class="cls-3" d="M46.45,52.51q-1.71.93-3.33,2a.3.3,0,1,0,.33.49q1.62-1.05,3.33-2c.35-.19,0-.68-.33-.49" transform="translate(-21.52 -24.18)"/><path class="cls-3" d="M46.38,54.39a32.07,32.07,0,0,0-3.35,2,.3.3,0,1,0,.33.49,32.36,32.36,0,0,1,3.35-2c.36-.18,0-.67-.33-.49" transform="translate(-21.52 -24.18)"/><path class="cls-3" d="M47,55.63A34.89,34.89,0,0,0,43.17,58a.3.3,0,1,0,.33.49,35.19,35.19,0,0,1,3.87-2.34c.36-.19,0-.68-.33-.49" transform="translate(-21.52 -24.18)"/><path class="cls-3" d="M47,57.91l-3.37,2.3a.29.29,0,1,0,.33.49l3.37-2.29a.3.3,0,1,0-.33-.49" transform="translate(-21.52 -24.18)"/><path class="cls-3" d="M46.78,60a34.81,34.81,0,0,0-3.26,2.5c-.3.26.17.65.46.4a33,33,0,0,1,3.12-2.4.3.3,0,1,0-.33-.49" transform="translate(-21.52 -24.18)"/><path class="cls-3" d="M45.83,63a22.06,22.06,0,0,1-2.64,1.7c-.35.19,0,.69.33.49a23.71,23.71,0,0,0,2.77-1.8c.31-.24-.15-.63-.46-.4" transform="translate(-21.52 -24.18)"/><path class="cls-3" d="M46.94,64.49a12.76,12.76,0,0,0-3.27,2.43c-.27.28.19.67.46.4A12.31,12.31,0,0,1,47.26,65c.36-.19,0-.68-.33-.49" transform="translate(-21.52 -24.18)"/><path class="cls-3" d="M47.11,66.66a20.36,20.36,0,0,0-4,2.76c-.29.26.17.66.46.4a19.55,19.55,0,0,1,3.87-2.67c.36-.19,0-.68-.33-.49" transform="translate(-21.52 -24.18)"/><path class="cls-3" d="M47.17,68.79l-3.81,2.55a.3.3,0,1,0,.33.49l3.81-2.55a.3.3,0,1,0-.33-.49" transform="translate(-21.52 -24.18)"/><path class="cls-3" d="M48.62,69.51l-4.15,2.75a.3.3,0,0,0,.33.49L48.95,70a.3.3,0,1,0-.33-.49" transform="translate(-21.52 -24.18)"/><path class="cls-3" d="M50.88,70q-1.73,1-3.35,2.2c-.32.23.15.63.46.4,1-.75,2.11-1.45,3.21-2.1.34-.2,0-.7-.33-.49" transform="translate(-21.52 -24.18)"/><path class="cls-3" d="M52,71.29a17.73,17.73,0,0,1-2,1.45.3.3,0,1,0,.33.49,18.47,18.47,0,0,0,2.16-1.55c.3-.25-.16-.65-.46-.4" transform="translate(-21.52 -24.18)"/><path class="cls-3" d="M63.14,46c-2,1.24-4.18,2.28-6.31,3.35-.36.18,0,.67.33.49,2.13-1.07,4.29-2.12,6.31-3.35.34-.21,0-.7-.33-.49" transform="translate(-21.52 -24.18)"/><path class="cls-3" d="M65.7,46.23Q63,47.32,60.34,48.61c-.36.18,0,.67.33.49q2.63-1.29,5.36-2.38c.38-.15,0-.64-.33-.49" transform="translate(-21.52 -24.18)"/><path class="cls-3" d="M66.9,47.56Q65,48.26,63,48.88a.29.29,0,1,0,.18.55q2-.61,3.92-1.31a.29.29,0,1,0-.18-.55" transform="translate(-21.52 -24.18)"/><path class="cls-3" d="M67.29,49.08q-1.29.52-2.54,1.13c-.36.18,0,.67.33.49q1.24-.61,2.53-1.13c.38-.15,0-.64-.33-.49" transform="translate(-21.52 -24.18)"/><path class="cls-3" d="M67.7,50.6l-1.92,1.15c-.34.2,0,.7.33.49L68,51.09c.34-.2,0-.7-.33-.49" transform="translate(-21.52 -24.18)"/><path class="cls-3" d="M68.44,52.34a15.16,15.16,0,0,0-2.27,1.33c-.32.23,0,.72.33.49a15.13,15.13,0,0,1,2.27-1.33c.37-.17,0-.66-.33-.49" transform="translate(-21.52 -24.18)"/><path class="cls-3" d="M69.61,54.35a29.9,29.9,0,0,0-3.24,1.39c-.36.18,0,.67.33.49a29.3,29.3,0,0,1,3.09-1.33.29.29,0,1,0-.18-.55" transform="translate(-21.52 -24.18)"/><path class="cls-3" d="M70.68,55.92q-2.19,1-4.24,2.27a.76.76,0,0,1,0,.65.31.31,0,0,0,.18,0A47.37,47.37,0,0,1,71,56.41c.37-.17,0-.66-.33-.49" transform="translate(-21.52 -24.18)"/><path class="cls-3" d="M70.74,57.4,67,59.72a.3.3,0,1,0,.33.49l3.74-2.32a.3.3,0,1,0-.33-.49" transform="translate(-21.52 -24.18)"/><path class="cls-3" d="M70.73,59.53,66.1,62.15c-.35.19,0,.69.33.49L71.06,60c.35-.2,0-.69-.33-.49" transform="translate(-21.52 -24.18)"/><path class="cls-3" d="M70.08,61.25Q68,62.47,66,63.81a5.53,5.53,0,0,1,0,.66.3.3,0,0,0,.11,0q2.1-1.41,4.3-2.69c.35-.2,0-.69-.33-.49" transform="translate(-21.52 -24.18)"/><path class="cls-3" d="M70.41,63.12l-4.54,2.62c0,.17-.05.33-.08.5a.3.3,0,0,0,.35,0l4.59-2.65c.35-.2,0-.69-.33-.49" transform="translate(-21.52 -24.18)"/><path class="cls-3" d="M70.92,64.67l-4.58,2.72c-.34.2,0,.69.33.49l4.57-2.71c.34-.2,0-.7-.33-.49" transform="translate(-21.52 -24.18)"/><path class="cls-3" d="M70.66,66.87a38.64,38.64,0,0,0-4,2.65c-.31.24.15.64.46.4A36.83,36.83,0,0,1,71,67.36c.35-.2,0-.69-.33-.49" transform="translate(-21.52 -24.18)"/><path class="cls-3" d="M70.42,68.8q-2,1.39-4,2.69a.3.3,0,1,0,.33.49q2-1.3,4-2.69c.32-.23,0-.72-.33-.49" transform="translate(-21.52 -24.18)"/><path class="cls-3" d="M71.88,70a39.81,39.81,0,0,1-4.24,2.69c-.35.19,0,.69.33.49a40.77,40.77,0,0,0,4.38-2.79c.32-.23-.15-.63-.46-.4" transform="translate(-21.52 -24.18)"/><path class="cls-3" d="M73.81,70.66c-.52.44-1.05.87-1.61,1.28s-1.33,1.15-2,1.22a.29.29,0,1,0,0,.57,4.27,4.27,0,0,0,2-1c.74-.52,1.44-1.07,2.12-1.65.3-.25-.17-.65-.46-.4" transform="translate(-21.52 -24.18)"/><path class="cls-3" d="M75.72,70.86a11.11,11.11,0,0,1-1.51,1.38c-.31.24.15.63.46.4a10.9,10.9,0,0,0,1.51-1.38c.26-.28-.2-.68-.46-.4" transform="translate(-21.52 -24.18)"/><path class="cls-3" d="M33.9,70.93c-1.4.65-8.38.83-10.24.56-.42-2.8-.13-19.42.18-30,1.66-.42,8.25-.34,10.27-.13.54,3.48.07,26.2-.2,29.59m1.22-31.17c-1-.27-10.93-.71-12.65.4a1,1,0,0,0-.54.87c0,.13-.23,7.77-.34,15.38-.23,15.9.17,16.14.77,16.49a13.41,13.41,0,0,0,4.4.44c3,0,6.62-.3,8-.88.8-.34,1-.8,1.05-1.13.08-.72.32-8.32.42-15.81.21-15.41-.2-15.52-1.1-15.77" transform="translate(-21.52 -24.18)"/><path class="cls-3" d="M24,28.82a5.82,5.82,0,0,1,4.11-2.88,6.9,6.9,0,0,1,4.47,1A3.92,3.92,0,0,1,34,30a5,5,0,0,1-2.66,4.58,5.51,5.51,0,0,1-5.1.14c-3.36-1.66-2.39-5.44-2.24-5.93m1.31,7.44a7.59,7.59,0,0,0,7-.18A6.66,6.66,0,0,0,35.93,30a5.5,5.5,0,0,0-2.08-4.28,8.82,8.82,0,0,0-5.91-1.45,7.61,7.61,0,0,0-5.73,4l0,.09c-.62,1.91-.75,6,3.15,8" transform="translate(-21.52 -24.18)"/><path class="cls-3" d="M76.08,71.72c-.21.16-1.14.67-4.38.58s-4.18-.3-4.35-.43a1.7,1.7,0,0,1-.08-.3c0-.21.07-1.24.17-2.33.81-9.47,1.11-18.48-2.18-20.27a9.8,9.8,0,0,0-4.66-1.34,7.2,7.2,0,0,0-1.52.16c-2.15.48-4,1.95-5.74,4.5a.78.78,0,0,0-.14.45c.1,8.65-.15,17.56-.37,19a17.53,17.53,0,0,1-4,0c-1-.07-2.08-.14-3-.14-1.25,0-1.71-.38-1.72-.77C44.09,60,44,43.57,44.13,42a1.28,1.28,0,0,1,.49-.27c1.95-.72,6.58-.42,8-.1a16.78,16.78,0,0,1,.32,2.55.86.86,0,0,0,.52.71,1.05,1.05,0,0,0,.94,0C59,42.32,63,41,65.48,41.27c4.83.49,9.45,2.18,10.58,11.16a101.32,101.32,0,0,1,0,19.29M78,52.24c-1-8.12-4.7-11.91-12.28-12.68-3.31-.34-7.6,1.36-11,3.1-.22-2-.52-2.33-1-2.54-1.37-.55-7.45-1-10,.09a2.26,2.26,0,0,0-1.41,1.34c0,.14-.18.57,0,29.26A2.19,2.19,0,0,0,43,72.45a4.11,4.11,0,0,0,2.92.89c.81,0,1.82.06,2.8.13,3,.2,5.28.36,5.92-.94.48-1,.6-13.27.54-19.56,1.38-2,2.86-3.17,4.41-3.51a6.78,6.78,0,0,1,4.71,1c1.81,1,2.24,7.26,1.26,18.66a13.77,13.77,0,0,0-.14,2.76c.35,1.69,1.28,2,6.26,2.15h.79c4.69,0,5.44-1.33,5.54-2,0-.11,1.12-11,0-19.82" transform="translate(-21.52 -24.18)"/></g></svg>
