<svg id="Calque_1" data-name="Calque 1" xmlns="http://www.w3.org/2000/svg" xmlns:xlink="http://www.w3.org/1999/xlink" viewBox="0 0 66.92 56.97"><defs><style>.cls-1{fill:none;}.cls-2{clip-path:url(#clip-path);}.cls-3{fill:#ffffff;}</style><clipPath id="clip-path" transform="translate(-16.54 -21.52)"><rect class="cls-1" x="16.54" y="21.52" width="66.92" height="56.97"/></clipPath></defs><title>twitter</title><g class="cls-2"><path class="cls-3" d="M59.12,70.4,52.78,75c-.37.27,0,.89.36.62L59.48,71c.37-.27,0-.89-.36-.62" transform="translate(-16.54 -21.52)"/><path class="cls-3" d="M57.1,70.32q-3.75,2.86-7.74,5.36c-.39.24,0,.86.36.62q4-2.49,7.74-5.35c.36-.28,0-.9-.36-.62" transform="translate(-16.54 -21.52)"/><path class="cls-3" d="M53,72.11c-2.31,1.34-4.67,2.63-6.93,4.07-.38.25,0,.86.36.62,2.26-1.44,4.62-2.73,6.93-4.07a.36.36,0,0,0-.36-.62" transform="translate(-16.54 -21.52)"/><path class="cls-3" d="M51.37,71.42q-4.17,2.43-8.19,5.1c-.38.25,0,.87.36.62q4-2.67,8.19-5.1a.36.36,0,0,0-.36-.62" transform="translate(-16.54 -21.52)"/><path class="cls-3" d="M44.65,73.18l-4.83,3.46c-.37.27,0,.89.36.62L45,73.8c.37-.27,0-.89-.36-.62" transform="translate(-16.54 -21.52)"/><path class="cls-3" d="M43.89,72.33a52,52,0,0,1-7.54,4.48c-.31.15-.15.72.19.67l.27,0a.35.35,0,0,0,.28-.21A51.74,51.74,0,0,0,44.25,73c.37-.27,0-.89-.36-.62" transform="translate(-16.54 -21.52)"/><path class="cls-3" d="M40.87,72.2q-3.49,2.47-7.15,4.68c-.39.24,0,.86.36.62q3.66-2.21,7.15-4.68c.37-.26,0-.89-.36-.62" transform="translate(-16.54 -21.52)"/><path class="cls-3" d="M38.58,71.93q-3.43,2.42-7,4.62c-.39.24,0,.86.36.62q3.57-2.2,7-4.62c.37-.26,0-.88-.36-.62" transform="translate(-16.54 -21.52)"/><path class="cls-3" d="M37.42,71a44,44,0,0,1-6.71,4.55c-.4.22,0,.84.36.62a44.65,44.65,0,0,0,6.86-4.66c.35-.29-.16-.78-.51-.5" transform="translate(-16.54 -21.52)"/><path class="cls-3" d="M35,70.86q-2.36,1.44-4.69,2.93c-.55.35-2.19.93-1.94,1.82a.35.35,0,0,0,.68-.2c0-.09,2.83-1.78,3.11-2,1.06-.67,2.13-1.33,3.21-2,.39-.24,0-.86-.36-.62" transform="translate(-16.54 -21.52)"/><path class="cls-3" d="M32.25,70.72l-3,1.84a11.76,11.76,0,0,0-2.5,1.58.36.36,0,0,0-.08.35l0,.08a.36.36,0,0,0,.26.25H27a.38.38,0,0,0,.4-.52.46.46,0,0,0,.59-.16l.71-.43L29.95,73l2.67-1.62c.39-.24,0-.86-.36-.62" transform="translate(-16.54 -21.52)"/><path class="cls-3" d="M29.49,70.3l-4.7,3c-.38.25,0,.87.36.62l4.7-3c.38-.25,0-.87-.36-.62" transform="translate(-16.54 -21.52)"/><path class="cls-3" d="M26.21,69.69Q24.14,71.38,22,73c-.37.27,0,.89.36.62q2.25-1.63,4.4-3.39c.35-.29-.16-.78-.51-.5" transform="translate(-16.54 -21.52)"/><path class="cls-3" d="M23.15,69.33a10.89,10.89,0,0,0-3,2.25c-.32.33.19.83.51.5a10.32,10.32,0,0,1,2.89-2.13c.41-.21,0-.82-.36-.62" transform="translate(-16.54 -21.52)"/><path class="cls-3" d="M40.88,63.32a27.83,27.83,0,0,1-6.53,4.21c-.42.19,0,.81.36.62a28.54,28.54,0,0,0,6.68-4.34c.35-.3-.17-.8-.51-.5" transform="translate(-16.54 -21.52)"/><path class="cls-3" d="M39.89,62.45q-2.18,1.15-4.25,2.5c-.38.25,0,.87.36.62q2.07-1.34,4.25-2.5c.4-.22,0-.83-.36-.62" transform="translate(-16.54 -21.52)"/><path class="cls-3" d="M36.7,62.24l-4.13,2.82c-.38.26,0,.88.36.62l4.13-2.82c.38-.26,0-.88-.36-.62" transform="translate(-16.54 -21.52)"/><path class="cls-3" d="M35.48,61.19l-3,2a6.5,6.5,0,0,0-1.92,1.61c-.26.38.36.72.62.34a8,8,0,0,1,2.26-1.74l2.42-1.61c.38-.26,0-.88-.36-.62" transform="translate(-16.54 -21.52)"/><path class="cls-3" d="M34.08,59.89a36.64,36.64,0,0,1-4.72,3.41c-.39.24,0,.86.36.62a37.66,37.66,0,0,0,4.87-3.53c.35-.3-.16-.79-.51-.5" transform="translate(-16.54 -21.52)"/><path class="cls-3" d="M32.84,58.66,30,60.77a15.79,15.79,0,0,0-2.23,1.79c-.31.34.2.84.51.5a17.3,17.3,0,0,1,2.39-1.91l2.5-1.87c.36-.27,0-.9-.36-.62" transform="translate(-16.54 -21.52)"/><path class="cls-3" d="M31.53,57.69q-2.4,1.7-4.9,3.25c-.39.24,0,.86.36.62q2.5-1.55,4.9-3.25c.37-.26,0-.88-.36-.62" transform="translate(-16.54 -21.52)"/><path class="cls-3" d="M29.26,57.18l-2.78,1.87a5.73,5.73,0,0,0-1.82,1.62c-.25.39.37.73.62.34a6.84,6.84,0,0,1,2.15-1.74l2.19-1.48c.38-.26,0-.88-.36-.62" transform="translate(-16.54 -21.52)"/><path class="cls-3" d="M30.55,53.8a55.28,55.28,0,0,0-7.11,5c-.34.31.18.81.51.5a53.6,53.6,0,0,1,7-4.93c.38-.26,0-.88-.36-.62" transform="translate(-16.54 -21.52)"/><path class="cls-3" d="M30.6,51.47a27.88,27.88,0,0,0-4.3,3c-.35.29.16.79.51.5A26.56,26.56,0,0,1,31,52.09c.4-.22,0-.84-.36-.62" transform="translate(-16.54 -21.52)"/><path class="cls-3" d="M29.33,50.31l-2.75,1.78a7.5,7.5,0,0,0-2.15,1.55c-.27.37.24.87.51.5a8.32,8.32,0,0,1,2.31-1.63l2.45-1.58c.38-.25,0-.87-.36-.62" transform="translate(-16.54 -21.52)"/><path class="cls-3" d="M27.55,49.11A26.56,26.56,0,0,0,23,52.26a.36.36,0,0,0,.51.5,25.73,25.73,0,0,1,4.41-3c.38-.25,0-.87-.36-.62" transform="translate(-16.54 -21.52)"/><path class="cls-3" d="M26.52,47.36c-1.46,1.41-3.45,2-4.85,3.53-.32.34.19.83.51.5,1.4-1.48,3.39-2.12,4.86-3.53.33-.32-.18-.82-.51-.5" transform="translate(-16.54 -21.52)"/><path class="cls-3" d="M26.57,44.75,23.13,47c-.71.47-1.73.87-2,1.74-.14.44.54.61.69.17s1-.82,1.34-1.06l1.2-.8,2.58-1.71c.38-.26,0-.87-.36-.62" transform="translate(-16.54 -21.52)"/><path class="cls-3" d="M24.57,43.35l-4.19,2.9c-.38.26,0,.88.36.62L24.93,44c.37-.26,0-.88-.36-.62" transform="translate(-16.54 -21.52)"/><path class="cls-3" d="M21.56,43.43a9.27,9.27,0,0,0-1.71,1.16c-.35.29.16.79.51.5a8.38,8.38,0,0,1,1.56-1c.4-.21,0-.83-.36-.62" transform="translate(-16.54 -21.52)"/><path class="cls-3" d="M26.12,39.77a19.58,19.58,0,0,0-2.79,2c-.35.3.16.8.51.5a18.43,18.43,0,0,1,2.64-1.87.36.36,0,0,0-.36-.62" transform="translate(-16.54 -21.52)"/><path class="cls-3" d="M26.65,41.41,25,42.47c-.38.24,0,.86.36.62L27,42c.38-.24,0-.86-.36-.62" transform="translate(-16.54 -21.52)"/><path class="cls-3" d="M24.47,38.82a21.73,21.73,0,0,0-2.16,1.47c-.36.28,0,.9.36.62a20.69,20.69,0,0,1,2.16-1.47.36.36,0,0,0-.36-.62" transform="translate(-16.54 -21.52)"/><path class="cls-3" d="M24.81,36.64l-3.34,2.63c-.35.28,0,.9.36.62l3.34-2.63c.35-.28,0-.9-.36-.62" transform="translate(-16.54 -21.52)"/><path class="cls-3" d="M24.8,34.46l-2.56,1.7a3.48,3.48,0,0,0-1.52,1.43c-.18.42.45.77.62.34.29-.7,1.18-1.09,1.78-1.49l2-1.36c.38-.25,0-.87-.36-.62" transform="translate(-16.54 -21.52)"/><path class="cls-3" d="M24.35,32.19l-3.18,2.07c-.38.25,0,.87.36.62l3.18-2.07c.38-.25,0-.87-.36-.62" transform="translate(-16.54 -21.52)"/><path class="cls-3" d="M23.39,30.48A26.09,26.09,0,0,1,20.76,32c-.4.21,0,.83.36.62a26.09,26.09,0,0,0,2.63-1.56c.38-.26,0-.88-.36-.62" transform="translate(-16.54 -21.52)"/><path class="cls-3" d="M23.48,28l-2.37,1.27c-.4.22,0,.83.36.62l2.38-1.27c.4-.22,0-.83-.36-.62" transform="translate(-16.54 -21.52)"/><path class="cls-3" d="M54.53,35.58a45.18,45.18,0,0,1-6,3.44c-.41.19,0,.82.36.62a45.18,45.18,0,0,0,6-3.44c.38-.26,0-.88-.36-.62" transform="translate(-16.54 -21.52)"/><path class="cls-3" d="M54.51,33.29a53.76,53.76,0,0,1-5.75,3.39c-.41.21,0,.83.36.62a54.4,54.4,0,0,0,5.75-3.39c.38-.26,0-.88-.36-.62" transform="translate(-16.54 -21.52)"/><path class="cls-3" d="M54.25,31.64a19.18,19.18,0,0,0-5.33,2.59c-.37.26,0,.88.36.62a18.37,18.37,0,0,1,5.16-2.52c.43-.13.24-.83-.19-.69" transform="translate(-16.54 -21.52)"/><path class="cls-3" d="M56.81,28Q54,29.53,51.08,31c-.41.2,0,.82.36.62q2.89-1.43,5.73-3c.4-.22,0-.84-.36-.62" transform="translate(-16.54 -21.52)"/><path class="cls-3" d="M58.73,25.41l-6.07,3c-.41.2,0,.82.36.62l6.07-3c.41-.2,0-.82-.36-.62" transform="translate(-16.54 -21.52)"/><path class="cls-3" d="M75.87,36.41c-1.41,1-1.92,3.68-2.76,8.19-1.75,9.43-4.69,25.2-19,29.64-17.32,5.37-31.23-1.06-34.71-3.75l1.11.1a36,36,0,0,0,6.88.15c6.26-.52,9.65-3.22,10.22-3.92a1.17,1.17,0,0,0,.2-1.06c-.22-.67-.68-.79-2.21-1.17-2.29-.58-7.07-1.77-9.29-4.29-1.59-1.8-1.79-2.82-1.73-3.24h4.95a1.12,1.12,0,0,0,1.1-.95,1.1,1.1,0,0,0-.93-1.23,13.25,13.25,0,0,1-6.4-4.22,12,12,0,0,1-2.73-7.22C24.39,45,24.52,45,24.75,45a1.07,1.07,0,0,0,1-.7,1.28,1.28,0,0,0-.56-1.46c-.83-.75-3.38-3-3.83-6a23.23,23.23,0,0,1,.93-9.88l.54.72a29,29,0,0,0,8.78,8.18A29,29,0,0,0,49,39.77a1.08,1.08,0,0,0,.92-1.07c0-.08.08-8.72,7.45-13.4,6.26-4,11.16.36,13.26,2.21a8.82,8.82,0,0,0,.83.68c1.14.76,4.18-.27,6.6-1.3-.83,1.28-1.8,2.75-2.59,3.94a1.1,1.1,0,0,0,0,1.19,1,1,0,0,0,1.06.49c1.45-.23,3.12-.45,4.27-.54a23.27,23.27,0,0,1-4.9,4.43m7.57-5.56a1.31,1.31,0,0,0-1.08-1,18.35,18.35,0,0,0-3.81.22c3.75-5.67,3.68-5.73,3.07-6.4a1.08,1.08,0,0,0-1.31-.19c-1.17.66-6.55,3-7.78,2.88-.13-.1-.33-.28-.54-.46-2-1.79-8.17-7.22-15.75-2.41C49.37,27.82,48.08,35,47.84,37.69A27.38,27.38,0,0,1,32.69,34a26.67,26.67,0,0,1-8.18-7.62c-.86-1.17-1.38-1.88-2.22-2a1.49,1.49,0,0,0-1.17.45c-1.64,1.58-2.45,8.39-1.86,12.3a10.17,10.17,0,0,0,1.66,4.11l-1-.42a1,1,0,0,0-.93.07,1.08,1.08,0,0,0-.52.79,14.32,14.32,0,0,0,3.22,10.38,17,17,0,0,0,3.08,2.81H24a1.05,1.05,0,0,0-.55.16,2.42,2.42,0,0,0-1,1.71c-.2,1.38.56,3.06,2.26,5,2.44,2.77,7,4.09,9.69,4.78a17.54,17.54,0,0,1-7.2,2.06,34.29,34.29,0,0,1-6.51-.15c-1.79-.18-2.87-.28-3.59.36a1.63,1.63,0,0,0-.54,1.2c0,.65.4,1.27,1.42,2.08,2.67,2.12,11.12,6.4,22.6,6.4A47.59,47.59,0,0,0,54.7,76.31C70.26,71.49,73.35,54.91,75.19,45c.55-3,1.18-6.34,1.85-6.79,1.86-1.26,6.82-5.33,6.4-7.37" transform="translate(-16.54 -21.52)"/></g></svg>
